<svg xmlns="http://www.w3.org/2000/svg" width="364.742" height="62.961" viewBox="0 0 364.742 62.961">
  <g id="アートワーク_81" data-name="アートワーク 81" transform="translate(182.371 31.481)">
    <g id="グループ_6144" data-name="グループ 6144" transform="translate(-182.371 -31.481)">
      <g id="グループ_6142" data-name="グループ 6142" transform="translate(0 10.163)">
        <path id="パス_14196" data-name="パス 14196" d="M67.2,43.765c0,9.77-15.1,17.665-33.652,17.665S0,53.535,0,43.765,15.1,26.1,33.652,26.1,67.3,33.995,67.3,43.765" transform="translate(0 -10.506)" fill="red"/>
        <path id="パス_14197" data-name="パス 14197" d="M87.741,51.557a5.822,5.822,0,0,1-4.441,5.23V54.418c1.776-.789,2.665-2.368,2.665-5.132h8.882v2.171Zm.2,12.04H84.583v-2.27h3.355c5.132,0,7.994-2.072,7.994-6.415V51.853H98.1v3.257c0,4.934-2.961,8.487-10.165,8.487m7.5-15.3h1.184v2.862H95.537Zm2.072,0h1.283v2.862H97.609Z" transform="translate(-1.095 -10.798)"/>
        <path id="パス_14198" data-name="パス 14198" d="M101.993,58.309,101.5,51.6h1.875l.592,6.711Zm1.974,5.23h-1.776V61.763h1.776c5.23,0,7.7-2.072,7.7-6.415V51.5h1.875v4.046c0,5.23-3.059,7.994-9.572,7.994m2.27-5.23-.493-6.711h1.776l.592,6.711Z" transform="translate(-1.334 -10.84)"/>
        <path id="パス_14199" data-name="パス 14199" d="M119.57,56v7.5H117.3v-14.9h2.27v5.033c2.664,1.382,7.007,1.974,10.658,1.974v2.27A27.632,27.632,0,0,1,119.57,56m7.994-7.8h1.184v2.763h-1.184Zm2.072,0h1.184v2.763h-1.184Z" transform="translate(-1.542 -10.797)"/>
        <path id="パス_14200" data-name="パス 14200" d="M140.47,56v7.5H138.2v-14.9h2.27v5.033c2.665,1.382,7.007,1.974,10.658,1.974v2.27A27.632,27.632,0,0,1,140.47,56m7.895-7.8h1.184v2.763h-1.184Zm2.072,0h1.184v2.763h-1.184Z" transform="translate(-1.817 -10.797)"/>
        <path id="パス_14201" data-name="パス 14201" d="M154.2,48.8h2.27v8.783H154.2Zm4.638,14.7h-2.763V61.432h2.566c5.329,0,7.4-2.171,7.4-6.415V48.8h2.27v6.415c0,5.625-3.059,8.388-9.375,8.388" transform="translate(-2.027 -10.805)"/>
        <rect id="長方形_4859" data-name="長方形 4859" width="12.434" height="2.329" transform="translate(168.95 44.311)"/>
        <path id="パス_14202" data-name="パス 14202" d="M198.625,63.6l-.3-1.382a14.507,14.507,0,0,1-5.921.987H185.5V61.036c1.283-2.27,2.171-7.007,3.059-12.336h2.368c-.888,5.428-1.776,9.967-2.961,12.237h4.54a13.52,13.52,0,0,0,5.329-.888l-1.974-8.98h2.27L200.895,63.5Z" transform="translate(-2.438 -10.803)"/>
        <path id="パス_14203" data-name="パス 14203" d="M209.868,63.5H207.5a41.741,41.741,0,0,0,1.678-8.98h2.27a44.112,44.112,0,0,1-1.579,8.98m6.415-10.954V63.6h-2.171V52.449H207.6V50.278h6.513V48.6h2.171v1.776H222.6v2.171ZM220.428,63.5a55.859,55.859,0,0,0-1.48-8.98h2.27A58.812,58.812,0,0,1,222.8,63.5Z" transform="translate(-2.728 -10.802)"/>
        <rect id="長方形_4860" data-name="長方形 4860" width="12.434" height="2.329" transform="translate(221.845 44.311)"/>
        <path id="パス_14204" data-name="パス 14204" d="M252.225,63.6l-.3-1.382a14.507,14.507,0,0,1-5.921.987H239.1V61.036c1.283-2.27,2.171-7.007,3.059-12.336h2.368c-.888,5.428-1.776,9.967-2.961,12.237h4.54a13.52,13.52,0,0,0,5.329-.888l-1.974-8.98h2.368L254.594,63.5Z" transform="translate(-3.143 -10.803)"/>
        <path id="パス_14205" data-name="パス 14205" d="M86.865,43.846c-1.184-.1-2.665-.3-2.665-2.566s.395-6.612.395-9.967-.1-9.079-.1-10.066c0-3.059,3.257-3.651,5.329-3.651s6.612-.493,10.855-.2,11.053,1.382,11.053,7.3c0,3.75-2.862,9.671-8.29,13.717s-10.559,5.822-16.579,5.428m4.243-6.711a7.6,7.6,0,0,0,2.665-.493c6.513-2.072,11.151-7.5,11.151-10.855,0-1.776-.691-2.27-2.862-2.467a37.3,37.3,0,0,0-10.263.493c-.1,3.75-.888,11.448-.987,13.224Z" transform="translate(-1.107 -10.391)"/>
        <path id="パス_14206" data-name="パス 14206" d="M120.707,34.076V35.26c0,1.579.2,3.257.2,5.033s-2.763,3.454-4.046,3.355-3.158-.789-3.158-2.467V39.208c0-5.822.3-11.448.592-17.665.1-3.059,1.776-3.454,3.651-3.651a63.75,63.75,0,0,1,11.349-.592c3.75.3,8.783,1.579,8.783,5.822s-4.638,7.895-9.967,8.684l4.145,3.257,4.638,3.553c.987.888,1.776,1.678,1.776,2.763s-1.974,2.665-3.454,2.566c-3.059-.2-5.724-3.059-7.895-5.033l-3.454-2.566Zm.592-6.908c2.961.2,9.276-1.678,9.276-3.454s-.493-.592-1.184-.592h-1.48a17.961,17.961,0,0,0-7.105.888c-.1,1.086-.2,2.072-.2,3.158Z" transform="translate(-1.495 -10.39)"/>
        <path id="パス_14207" data-name="パス 14207" d="M147.805,27.566c4.441.2,10.263-.691,12.533-.592A2.763,2.763,0,0,1,163,29.737c0,1.974-2.368,2.665-3.553,2.862-3.651.395-7.895.395-11.941.789v4.046h1.48a31.876,31.876,0,0,0,5.724-.395,36.809,36.809,0,0,1,6.415-.3c1.678.1,3.454,1.283,3.454,2.961s-1.974,2.961-4.441,2.961-11.25.888-15.79.592c-1.678-.1-3.454-.592-3.651-2.763,0-.493.1-.987.1-1.875s.493-6.02.493-8.586V24.605c0-1.184,0-.888.1-2.961s.592-3.947,3.059-3.849h1.974c2.072.1,3.947.1,6.908.1l7.5-.395h1.283a2.961,2.961,0,0,1,2.566,2.961,3.355,3.355,0,0,1-3.257,3.158H148c-.1.987-.1,2.368-.1,3.355Z" transform="translate(-1.85 -10.393)"/>
        <path id="パス_14208" data-name="パス 14208" d="M175.08,36.633,173.4,39.988a15.111,15.111,0,0,0-.888,2.368,2.27,2.27,0,0,1-2.467,1.184c-2.763-.2-3.947-1.48-3.947-2.961a5.724,5.724,0,0,1,.888-2.862l2.27-3.651c.789-1.283,2.368-4.441,4.737-8.388,1.283-2.072,2.467-4.243,3.651-6.02s2.664-3.158,4.54-3.059,4.243,5.132,5.329,7.105c3.454,6.217,4.638,8.882,7.3,13.421.493.987,2.072,3.355,2.072,4.243s-2.171,3.257-3.849,3.158-2.27-1.579-3.651-4.046l-1.974-3.849c-3.849.2-9.276-.2-12.237,0m7.8-8.191a24.173,24.173,0,0,0-1.48-2.862c-.2,0-.3.2-.493.592l-1.48,2.467-1.48,2.566h6.415Z" transform="translate(-2.183 -10.381)"/>
        <path id="パス_14209" data-name="パス 14209" d="M217.048,39.988c-.592,1.086-1.184,2.072-2.862,2.072a3.355,3.355,0,0,1-2.862-2.368c-1.678-3.553-3.355-6.415-5.23-9.671a53.682,53.682,0,0,0-.691,7.5c0,1.184.2,2.961.2,2.961.2,2.566-1.974,3.454-4.54,3.454a2.862,2.862,0,0,1-2.961-2.961,9.87,9.87,0,0,1,.2-1.48c1.184-7.007,1.48-8.783,1.974-12.73.3-2.171.493-4.243.691-6.415a2.959,2.959,0,0,1,.1-.592,4.342,4.342,0,0,1,4.145-3.158,2.763,2.763,0,0,1,2.368,1.579c1.382,2.862,2.368,4.934,3.849,7.5l3.355,5.822c1.579-2.171,2.862-4.342,4.342-6.612s1.875-3.158,2.862-4.638,2.27-2.961,3.75-2.961,3.257.987,3.75,4.934.493,9.079,1.382,14.309c.3,1.579,1.086,3.059,1.086,4.737a2.763,2.763,0,0,1-3.059,2.763c-1.974,0-2.961-.493-3.553-1.776a11.742,11.742,0,0,1-.79-3.651c-.1-1.283-.2-2.763-.395-4.243s-.395-3.158-.691-5.033c-2.27,3.553-5.428,8.98-6.217,10.658" transform="translate(-2.604 -10.381)"/>
        <path id="パス_14210" data-name="パス 14210" d="M268.048,22.821c0-.395,0-2.171.1-3.059a1.974,1.974,0,0,1,2.27-1.776c2.763.2,4.145,1.283,4.145,3.849s-.3,6.415-.3,9.375,0,5.033.1,9.375c0,1.776-.2,3.849-2.862,3.651s-3.651-1.283-3.651-3.651c0-.789.2-3.059.2-5.526v-1.48c-3.947-.2-7.895-.3-12.434-.3,0,.691-.1,1.382-.1,2.171s.1,3.355.1,5.132-2.072,3.158-3.454,3.059a3.059,3.059,0,0,1-2.862-3.059c-.1-2.368-.2-5.329-.2-7.5,0-4.638.395-8.684.395-11.645s.987-4.638,2.961-4.54c3.947.3,4.342,2.171,4.342,3.257a23.185,23.185,0,0,1-.395,2.665,39.37,39.37,0,0,0-.592,4.836c4.046.2,7.994.1,12.237.1Z" transform="translate(-3.274 -10.385)"/>
        <path id="パス_14211" data-name="パス 14211" d="M290.427,44.234C283.222,43.741,277.4,39.3,277.4,32.1s8.388-15.888,17.763-15.3A12.533,12.533,0,0,1,307.2,29.629c0,8.684-7.6,15.2-16.678,14.507m4.145-21.513c-5.329-.395-10.362,4.342-10.362,9.967,0,3.75,2.171,5.428,5.921,5.724a9.572,9.572,0,0,0,10.362-9.375,5.921,5.921,0,0,0-5.921-6.217" transform="translate(-3.646 -10.384)"/>
        <path id="パス_14212" data-name="パス 14212" d="M327.748,39.988c-.592,1.086-1.184,2.072-2.862,2.072a3.355,3.355,0,0,1-2.862-2.368c-1.678-3.553-3.355-6.415-5.23-9.671a53.478,53.478,0,0,0-.691,7.5c0,1.184.2,2.961.2,2.961.2,2.566-1.974,3.454-4.539,3.454a2.862,2.862,0,0,1-2.961-2.961,9.89,9.89,0,0,1,.2-1.48c1.184-7.007,1.48-8.783,1.974-12.73.3-2.171.493-4.243.691-6.415a2.96,2.96,0,0,1,.1-.592,4.342,4.342,0,0,1,4.145-3.158,2.763,2.763,0,0,1,2.368,1.579c1.382,2.862,2.368,4.934,3.849,7.5l3.355,5.822c1.579-2.171,2.862-4.342,4.342-6.612s1.875-3.158,2.862-4.638,2.27-2.961,3.75-2.961,3.257.987,3.75,4.934.493,9.079,1.382,14.309c.3,1.579,1.086,3.059,1.086,4.737a2.763,2.763,0,0,1-3.059,2.763c-1.974,0-2.961-.493-3.553-1.776a11.743,11.743,0,0,1-.789-3.651c-.1-1.283-.2-2.763-.395-4.243s-.395-3.158-.691-5.033c-2.27,3.553-5.428,8.98-6.217,10.658" transform="translate(-4.059 -10.381)"/>
        <path id="パス_14213" data-name="パス 14213" d="M352.405,27.566c4.441.2,10.263-.691,12.533-.592a2.763,2.763,0,0,1,2.664,2.763c0,1.974-2.368,2.665-3.553,2.862-3.651.395-7.895.395-11.941.789v4.046h1.48a31.874,31.874,0,0,0,5.724-.395,36.81,36.81,0,0,1,6.415-.3c1.678.1,3.454,1.283,3.454,2.961s-1.974,2.961-4.441,2.961-11.25.888-15.79.592c-1.678-.1-3.454-.592-3.651-2.763,0-.493.1-.987.1-1.875s.493-6.02.493-8.586V24.605c0-1.184,0-.888.1-2.961s.592-3.947,3.059-3.849h1.974c2.072.1,3.947.1,6.908.1l7.5-.395h1.283a2.96,2.96,0,0,1,2.566,2.961,3.355,3.355,0,0,1-3.257,3.158H352.6c-.1.987-.1,2.368-.1,3.355Z" transform="translate(-4.539 -10.393)"/>
        <path id="パス_14214" data-name="パス 14214" d="M44.055,26.583c2.665.888,3.651,3.75,2.171,4.836a3.257,3.257,0,0,1,2.368,2.763,2.763,2.763,0,0,1-.888,2.467c3.158,3.355-2.961,4.54-4.54,5.625a11.744,11.744,0,0,1-3.849,3.158c-2.763,1.579-8.092.3-10.362-1.48s-5.033-5.822-1.776-14.507a35.822,35.822,0,0,0,.888-7.007c.1-5.23-3.355-9.967.888-11.842s7.4,5.428,5.132,13.026c4.046-2.665,8.98-1.48,9.967,2.961" transform="translate(-0.338 -10.298)" fill="#fff"/>
        <path id="パス_14215" data-name="パス 14215" d="M44.055,26.583c2.665.888,3.651,3.75,2.171,4.836a3.257,3.257,0,0,1,2.368,2.763,2.763,2.763,0,0,1-.888,2.467c3.158,3.355-2.961,4.54-4.54,5.625a11.744,11.744,0,0,1-3.849,3.158c-2.763,1.579-8.092.3-10.362-1.48s-5.033-5.822-1.776-14.507a35.822,35.822,0,0,0,.888-7.007c.1-5.23-3.355-9.967.888-11.842s7.4,5.428,5.132,13.026c4.046-2.665,8.98-1.48,9.967,2.961" transform="translate(-0.338 -10.298)" fill="none" stroke="red" stroke-linecap="round" stroke-linejoin="round" stroke-width="1.717"/>
        <path id="パス_14216" data-name="パス 14216" d="M44.184,26.8c-1.776-.789-5.23-.2-8.684,1.579" transform="translate(-0.467 -10.511)" fill="none" stroke="red" stroke-linecap="round" stroke-linejoin="round" stroke-width="1.717"/>
        <path id="パス_14217" data-name="パス 14217" d="M46.284,31.695a12.237,12.237,0,0,0-8.684.987" transform="translate(-0.494 -10.575)" fill="none" stroke="red" stroke-linecap="round" stroke-linejoin="round" stroke-width="1.717"/>
        <path id="パス_14218" data-name="パス 14218" d="M47.89,36.989c-1.678-1.184-5.526-1.184-8.29.395" transform="translate(-0.521 -10.638)" fill="none" stroke="red" stroke-linecap="round" stroke-linejoin="round" stroke-width="1.717"/>
        <path id="パス_14219" data-name="パス 14219" d="M32.9,25.576A3.158,3.158,0,0,1,34.084,23.8" transform="translate(-0.432 -10.476)" fill="none" stroke="red" stroke-linecap="round" stroke-linejoin="round" stroke-width="1.717"/>
        <path id="パス_14220" data-name="パス 14220" d="M21.182,53.12c-1.086-.1-2.072.2-3.257.1a1.086,1.086,0,0,1-.987-1.086,1.184,1.184,0,0,1,1.086-1.184h4.737c.493.1,1.48.3,1.48,1.086,0,4.046-4.54,5.033-7.2,4.737S12.3,55.291,12.3,52.43s3.75-5.724,7.2-5.23c1.974.2,4.046.789,4.046,2.566a.888.888,0,0,1-.888.888c-.888-.1-1.48-1.086-2.763-1.184s-5.23,1.184-5.23,3.059.789,1.875,2.467,2.072,4.046-.493,4.145-1.283Z" transform="translate(-0.162 -10.783)" fill="#fff"/>
        <path id="パス_14221" data-name="パス 14221" d="M29.437,56.768c-2.566-.3-4.737-2.072-4.737-4.638s3.059-5.625,6.415-5.23a4.836,4.836,0,0,1,4.342,4.934c0,3.158-2.763,5.329-6.119,4.934m1.678-7.8a3.454,3.454,0,0,0-3.75,3.454c0,1.382.789,2.072,2.171,2.171a3.257,3.257,0,0,0,3.75-3.257,2.27,2.27,0,0,0-2.171-2.368" transform="translate(-0.325 -10.779)" fill="#fff"/>
        <path id="パス_14222" data-name="パス 14222" d="M40.837,56.768c-2.566-.3-4.737-2.072-4.737-4.638s3.059-5.625,6.415-5.23a4.836,4.836,0,0,1,4.342,4.934c0,3.158-2.763,5.329-6.118,4.934m1.579-7.8a3.454,3.454,0,0,0-3.75,3.454c0,1.382.789,2.072,2.171,2.171a3.257,3.257,0,0,0,3.75-3.257,2.27,2.27,0,0,0-2.171-2.368" transform="translate(-0.475 -10.779)" fill="#fff"/>
        <path id="パス_14223" data-name="パス 14223" d="M48.987,56.574c-.395-.1-.987-.2-.987-.987s.2-2.368.2-3.651V48.284A2.461,2.461,0,0,1,50.171,47.1c.789.1,2.368-.1,3.947.1s4.046.691,4.046,2.862A6.612,6.612,0,0,1,55.007,54.9a9.079,9.079,0,0,1-6.02,1.678m1.579-2.368h.987c2.368-.592,4.046-2.467,4.046-3.75s-.3-.888-.987-.987a13.52,13.52,0,0,0-3.75,0,45.285,45.285,0,0,1-.395,4.737Z" transform="translate(-0.631 -10.782)" fill="#fff"/>
      </g>
      <g id="グループ_6143" data-name="グループ 6143" transform="translate(83.291)">
        <path id="パス_14224" data-name="パス 14224" d="M92.1,1.4V9H84.4V1.4ZM90.815,2.486h-5.23V7.815h5.23Z" transform="translate(-84.4 -0.018)"/>
        <path id="パス_14225" data-name="パス 14225" d="M103.778,4.4V5.584H94.6V4.4Z" transform="translate(-84.534 -0.058)"/>
        <path id="パス_14226" data-name="パス 14226" d="M106.888,8.29c4.046-.691,5.428-2.368,5.921-5.822H106V1.283h6.908a.889.889,0,0,1,0-.2,1.086,1.086,0,1,1,1.086,1.086,10.56,10.56,0,0,1-1.184,3.947,7.9,7.9,0,0,1-5.428,3.257Zm6.612-7.2a.493.493,0,1,0,.493-.493.493.493,0,0,0-.493.493Z" transform="translate(-84.684 0)"/>
        <path id="パス_14227" data-name="パス 14227" d="M125.088,3.367c-.3,2.171-.691,5.526-6.809,6.118l-.3-1.086a8.092,8.092,0,0,0,3.849-1.086,4.145,4.145,0,0,0,1.875-2.862H116.7V3.367ZM124.5.9V1.986h-7.105V.9Z" transform="translate(-84.825 -0.012)"/>
        <path id="パス_14228" data-name="パス 14228" d="M132.624,9.579h-1.283V4.842a15.888,15.888,0,0,1-3.849,1.776l-.592-.987A15.3,15.3,0,0,0,134.5.5l1.086.691a30.983,30.983,0,0,1-2.961,2.763Z" transform="translate(-84.959 -0.007)"/>
        <path id="パス_14229" data-name="パス 14229" d="M136.7,8.4a10.757,10.757,0,0,0,6.02-6.217h-5.428V1.1H144.3a11.25,11.25,0,0,1-1.974,4.342c1.184.987,2.368,1.974,3.553,3.059l-.987.987a30.5,30.5,0,0,0-3.257-3.158,10.856,10.856,0,0,1-4.145,3.158Z" transform="translate(-85.088 -0.014)"/>
        <path id="パス_14230" data-name="パス 14230" d="M148.384,4.934l-.691.888L147.2,4.54A8.389,8.389,0,0,0,148.976.1h1.086a8.684,8.684,0,0,1-.592,2.566v7.2h-1.086Zm5.822-2.665A9.771,9.771,0,0,0,152.134.888L152.825,0,154.9,1.283l-.691.888h2.664v.987h-2.763V5.132h2.368v.987h-2.368V8.586h3.059v.987h-7.2V8.586h3.059V6.217h-2.368V5.23h2.368V3.257h-2.763V2.27Z" transform="translate(-85.225 0)"/>
        <path id="パス_14231" data-name="パス 14231" d="M163.337,5.429l4.934-.493v.987l-5.033.493V8.488c0,.2.1.2.2.2H166.3a.3.3,0,0,0,.3-.3,12.728,12.728,0,0,0,.1-1.382l1.086.3c0,1.579-.1,2.467-1.086,2.467H163.14c-.3,0-.987,0-.987-.789V6.613l-3.553.395V5.922l3.651-.395V4.343l-1.875.2-.3-1.086a22.6,22.6,0,0,0,6.118-.987l.493.987a15.4,15.4,0,0,1-3.355.789ZM162.942.1h1.086V.988h4.046V3.554h-1.086V2.074h-7.007v1.48H158.9V1.087h4.046Z" transform="translate(-85.375 -0.001)"/>
        <path id="パス_14232" data-name="パス 14232" d="M172.268,7.205H169.9V6.317h6.711V5.725H170.69V2.271h3.553V1.778H169.9V.889h4.342V.1h.987V.889h4.441v.888h-4.441v.493h3.454V5.725H177.6v.592h1.974v.888H177.6V8.982a.789.789,0,0,1-.888.888h-1.776l-.2-.987h1.678c.2,0,.2-.1.2-.3V7.205h-4.342a11.447,11.447,0,0,1,1.776,1.678l-.888.691A9.867,9.867,0,0,0,171.479,7.9Zm-.592-4.145v.592h2.467V3.061Zm0,1.283v.592h2.467V4.442Zm3.553-1.283v.592H177.7V3.061Zm0,1.283v.592H177.7V4.442Z" transform="translate(-85.524 -0.001)"/>
        <path id="パス_14233" data-name="パス 14233" d="M181.6.5h3.947V4.546h-2.862V9.875H181.6Zm1.086,1.678h1.875V1.388h-1.875Zm0,1.48h1.875V2.868h-1.875Zm6.908.987h-2.961V.5h4.046V8.987c0,.592-.3.987-1.086.987h-1.678l-.2-1.086H189.3c.2,0,.3,0,.3-.3ZM187.62,2.178h1.974V1.388H187.62Zm0,1.48h1.974V2.868H187.62Z" transform="translate(-85.678 -0.007)"/>
        <path id="パス_14234" data-name="パス 14234" d="M193.189,1.087h3.75V.1h1.086v.987h4.046v.987h-7.8V5.33a7.7,7.7,0,0,1-1.086,4.441l-.79-.888a7.006,7.006,0,0,0,.888-3.651Zm8.882,3.257h-3.849V5.528h3.158V9.87h-1.086V9.376h-4.54V9.87H194.67V5.528h2.368V2.37h1.086v.888h3.849Zm-6.217,2.27V8.39h4.54V6.515Z" transform="translate(-85.82 -0.001)"/>
      </g>
    </g>
  </g>
</svg>
