<svg xmlns="http://www.w3.org/2000/svg" width="257.781" height="44.498" viewBox="0 0 257.781 44.498">
  <g id="アートワーク_81" data-name="アートワーク 81" transform="translate(128.891 22.249)">
    <g id="グループ_6277" data-name="グループ 6277" transform="translate(-128.891 -22.249)">
      <g id="グループ_6275" data-name="グループ 6275" transform="translate(0 7.183)">
        <path id="パス_14864" data-name="パス 14864" d="M47.5,38.585c0,6.9-10.671,12.485-23.783,12.485S0,45.489,0,38.585,10.671,26.1,23.783,26.1s23.783,5.58,23.783,12.485" transform="translate(0 -15.079)" fill="red"/>
        <path id="パス_14865" data-name="パス 14865" d="M86.439,50.6A4.115,4.115,0,0,1,83.3,54.3V52.624c1.255-.558,1.883-1.674,1.883-3.627H91.46v1.534Zm.139,8.509H84.207v-1.6h2.371c3.627,0,5.649-1.465,5.649-4.533V50.811h1.534v2.3c0,3.487-2.092,6-7.184,6m5.3-10.811h.837v2.023h-.767Zm1.465,0h.907v2.023h-.837Z" transform="translate(-25.202 -21.795)"/>
        <path id="パス_14866" data-name="パス 14866" d="M101.849,56.312,101.5,51.57h1.325l.418,4.743Zm1.395,3.7h-1.255V58.754h1.255c3.7,0,5.44-1.465,5.44-4.533V51.5h1.325v2.86c0,3.7-2.162,5.649-6.765,5.649m1.6-3.7L104.5,51.57h1.255l.418,4.743Z" transform="translate(-30.708 -22.764)"/>
        <path id="パス_14867" data-name="パス 14867" d="M118.9,53.71v5.3h-1.6V48.479h1.6v3.557a18.154,18.154,0,0,0,7.533,1.395v1.6A19.529,19.529,0,0,1,118.9,53.71m5.649-5.51h.837v1.953h-.837Zm1.465,0h.837v1.953h-.837Z" transform="translate(-35.488 -21.765)"/>
        <path id="パス_14868" data-name="パス 14868" d="M139.8,53.71v5.3h-1.6V48.479h1.6v3.557a18.155,18.155,0,0,0,7.533,1.395v1.6A19.529,19.529,0,0,1,139.8,53.71m5.58-5.51h.837v1.953h-.837Zm1.465,0h.837v1.953h-.837Z" transform="translate(-41.811 -21.765)"/>
        <path id="パス_14869" data-name="パス 14869" d="M154.2,48.8h1.6v6.207h-1.6Zm3.278,10.392h-1.953V57.727h1.813c3.766,0,5.231-1.534,5.231-4.533V48.8h1.6v4.533c0,3.976-2.162,5.928-6.626,5.928" transform="translate(-46.652 -21.947)"/>
        <rect id="長方形_5002" data-name="長方形 5002" width="8.788" height="1.646" transform="translate(119.405 31.317)"/>
        <path id="パス_14870" data-name="パス 14870" d="M194.776,59.232l-.209-.976a10.253,10.253,0,0,1-4.185.7H185.5V57.418c.907-1.6,1.534-4.952,2.162-8.718h1.674c-.628,3.836-1.255,7.044-2.092,8.648h3.208a9.555,9.555,0,0,0,3.766-.628l-1.395-6.347h1.6l1.953,8.788Z" transform="translate(-56.121 -21.916)"/>
        <path id="パス_14871" data-name="パス 14871" d="M209.174,59.132H207.5a29.5,29.5,0,0,0,1.186-6.347h1.6a31.175,31.175,0,0,1-1.116,6.347m4.534-7.742V59.2h-1.534V51.32h-4.6V49.786h4.6V48.6h1.534v1.255h4.464V51.39Zm2.929,7.742a39.476,39.476,0,0,0-1.046-6.347h1.6a41.562,41.562,0,0,1,1.116,6.347Z" transform="translate(-62.777 -21.886)"/>
        <rect id="長方形_5003" data-name="長方形 5003" width="8.788" height="1.646" transform="translate(156.789 31.317)"/>
        <path id="パス_14872" data-name="パス 14872" d="M248.376,59.232l-.209-.976a10.253,10.253,0,0,1-4.185.7H239.1V57.418c.907-1.6,1.534-4.952,2.162-8.718h1.674c-.628,3.836-1.255,7.044-2.092,8.648h3.208a9.555,9.555,0,0,0,3.766-.628l-1.395-6.347H248.1l1.953,8.788Z" transform="translate(-72.337 -21.916)"/>
        <path id="パス_14873" data-name="パス 14873" d="M86.083,36.063c-.837-.07-1.883-.209-1.883-1.813s.279-4.673.279-7.044-.07-6.417-.07-7.114c0-2.162,2.3-2.581,3.766-2.581s4.673-.349,7.672-.139,7.812.976,7.812,5.161c0,2.65-2.023,6.835-5.859,9.695s-7.463,4.115-11.717,3.836m3-4.743a5.37,5.37,0,0,0,1.883-.349c4.6-1.465,7.881-5.3,7.881-7.672,0-1.255-.488-1.6-2.023-1.744a26.364,26.364,0,0,0-7.254.349c-.07,2.65-.628,8.091-.7,9.346Z" transform="translate(-25.474 -12.418)"/>
        <path id="パス_14874" data-name="パス 14874" d="M118.652,29.143v.837c0,1.116.14,2.3.14,3.557s-1.953,2.441-2.86,2.371-2.232-.558-2.232-1.744V32.77c0-4.115.209-8.091.418-12.485.07-2.162,1.255-2.441,2.581-2.581a45.055,45.055,0,0,1,8.021-.418c2.65.209,6.207,1.116,6.207,4.115s-3.278,5.58-7.044,6.138l2.929,2.3,3.278,2.511c.7.628,1.255,1.186,1.255,1.953s-1.395,1.883-2.441,1.813c-2.162-.139-4.045-2.162-5.58-3.557l-2.441-1.813Zm.418-4.882c2.092.139,6.556-1.186,6.556-2.441s-.349-.418-.837-.418h-1.046a12.694,12.694,0,0,0-5.022.628c-.07.767-.139,1.465-.139,2.232Z" transform="translate(-34.399 -12.403)"/>
        <path id="パス_14875" data-name="パス 14875" d="M145.722,24.614c3.139.139,7.254-.488,8.858-.418a1.953,1.953,0,0,1,1.883,1.953c0,1.395-1.674,1.883-2.511,2.023-2.581.279-5.58.279-8.439.558v2.86h1.046a22.528,22.528,0,0,0,4.045-.279,26.015,26.015,0,0,1,4.533-.209,2.429,2.429,0,0,1,2.441,2.092c0,1.186-1.395,2.092-3.139,2.092s-7.951.628-11.159.418c-1.186-.07-2.441-.418-2.581-1.953,0-.349.07-.7.07-1.325s.349-4.254.349-6.068V22.522c0-.837,0-.628.07-2.092s.419-2.79,2.162-2.72h1.395c1.465.07,2.79.07,4.882.07l5.3-.279h.907a2.092,2.092,0,0,1,1.813,2.092,2.371,2.371,0,0,1-2.3,2.232h-9.485c-.07.7-.07,1.674-.07,2.371Z" transform="translate(-42.567 -12.477)"/>
        <path id="パス_14876" data-name="パス 14876" d="M172.447,30.757l-1.186,2.371a10.68,10.68,0,0,0-.628,1.674,1.6,1.6,0,0,1-1.744.837c-1.953-.139-2.79-1.046-2.79-2.092a4.045,4.045,0,0,1,.628-2.023l1.6-2.581c.558-.907,1.674-3.139,3.348-5.928.907-1.465,1.744-3,2.581-4.255s1.883-2.232,3.208-2.162,3,3.627,3.766,5.022c2.441,4.394,3.278,6.277,5.161,9.485.349.7,1.465,2.371,1.465,3a3.41,3.41,0,0,1-2.72,2.232c-1.186-.07-1.6-1.116-2.581-2.86l-1.395-2.72c-2.72.139-6.556-.139-8.648,0m5.51-5.789a17.083,17.083,0,0,0-1.046-2.023c-.139,0-.209.139-.349.418l-1.046,1.744-1.046,1.813h4.533Z" transform="translate(-50.252 -12.203)"/>
        <path id="パス_14877" data-name="パス 14877" d="M211.491,33.13c-.418.767-.837,1.465-2.023,1.465a2.371,2.371,0,0,1-2.023-1.674c-1.186-2.511-2.371-4.533-3.7-6.835a37.936,37.936,0,0,0-.488,5.3c0,.837.139,2.092.139,2.092.139,1.813-1.395,2.441-3.208,2.441a2.023,2.023,0,0,1-2.092-2.092,6.978,6.978,0,0,1,.14-1.046c.837-4.952,1.046-6.207,1.395-9,.209-1.534.349-3,.488-4.533a2.091,2.091,0,0,1,.07-.418,3.069,3.069,0,0,1,2.929-2.232,1.953,1.953,0,0,1,1.674,1.116c.976,2.023,1.674,3.487,2.72,5.3l2.371,4.115c1.116-1.534,2.023-3.069,3.069-4.673s1.325-2.232,2.023-3.278,1.6-2.092,2.65-2.092,2.3.7,2.65,3.487.349,6.417.976,10.113a17.951,17.951,0,0,1,.767,3.348,1.953,1.953,0,0,1-2.162,1.953c-1.395,0-2.092-.349-2.511-1.255a8.3,8.3,0,0,1-.558-2.581c-.07-.907-.139-1.953-.279-3s-.279-2.232-.488-3.557c-1.6,2.511-3.836,6.347-4.394,7.533" transform="translate(-59.933 -12.205)"/>
        <path id="パス_14878" data-name="パス 14878" d="M262.491,21.083c0-.279,0-1.534.07-2.162a1.395,1.395,0,0,1,1.6-1.255c1.953.139,2.929.907,2.929,2.72s-.209,4.533-.209,6.626,0,3.557.07,6.626c0,1.255-.14,2.72-2.023,2.581s-2.581-.907-2.581-2.581c0-.558.139-2.162.139-3.906V28.686c-2.79-.139-5.58-.209-8.788-.209,0,.488-.07.976-.07,1.534s.07,2.371.07,3.627a2.468,2.468,0,0,1-2.441,2.162,2.162,2.162,0,0,1-2.023-2.162c-.07-1.674-.139-3.766-.139-5.3,0-3.278.279-6.138.279-8.23s.7-3.278,2.092-3.208c2.79.209,3.069,1.534,3.069,2.3a16.384,16.384,0,0,1-.279,1.883,27.822,27.822,0,0,0-.418,3.418c2.86.139,5.649.07,8.648.07Z" transform="translate(-75.363 -12.294)"/>
        <path id="パス_14879" data-name="パス 14879" d="M286.606,36.181c-5.091-.349-9.207-3.487-9.207-8.579s5.928-11.229,12.554-10.811a8.858,8.858,0,0,1,8.509,9.067c0,6.138-5.37,10.741-11.787,10.253m2.929-15.2a7.126,7.126,0,0,0-7.323,7.044c0,2.65,1.534,3.836,4.185,4.045a6.765,6.765,0,0,0,7.323-6.626,4.185,4.185,0,0,0-4.185-4.394" transform="translate(-83.925 -12.257)"/>
        <path id="パス_14880" data-name="パス 14880" d="M322.191,33.13c-.418.767-.837,1.465-2.023,1.465a2.371,2.371,0,0,1-2.023-1.674c-1.186-2.511-2.371-4.533-3.7-6.835a37.793,37.793,0,0,0-.488,5.3c0,.837.139,2.092.139,2.092.139,1.813-1.395,2.441-3.208,2.441a2.023,2.023,0,0,1-2.092-2.092,6.99,6.99,0,0,1,.14-1.046c.837-4.952,1.046-6.207,1.395-9,.209-1.534.349-3,.488-4.533a2.09,2.09,0,0,1,.07-.418,3.069,3.069,0,0,1,2.929-2.232,1.953,1.953,0,0,1,1.674,1.116c.976,2.023,1.674,3.487,2.72,5.3l2.371,4.115c1.116-1.534,2.023-3.069,3.069-4.673s1.325-2.232,2.023-3.278,1.6-2.092,2.65-2.092,2.3.7,2.65,3.487.349,6.417.976,10.113a17.953,17.953,0,0,1,.767,3.348,1.953,1.953,0,0,1-2.162,1.953c-1.395,0-2.092-.349-2.511-1.255a8.3,8.3,0,0,1-.558-2.581c-.07-.907-.14-1.953-.279-3s-.279-2.232-.488-3.557c-1.6,2.511-3.836,6.347-4.394,7.533" transform="translate(-93.424 -12.205)"/>
        <path id="パス_14881" data-name="パス 14881" d="M350.322,24.614c3.139.139,7.254-.488,8.858-.418a1.953,1.953,0,0,1,1.883,1.953c0,1.395-1.674,1.883-2.511,2.023-2.581.279-5.58.279-8.439.558v2.86h1.046a22.527,22.527,0,0,0,4.045-.279,26.015,26.015,0,0,1,4.534-.209,2.429,2.429,0,0,1,2.441,2.092c0,1.186-1.395,2.092-3.139,2.092s-7.951.628-11.159.418c-1.186-.07-2.441-.418-2.581-1.953,0-.349.07-.7.07-1.325s.349-4.254.349-6.068V22.522c0-.837,0-.628.07-2.092s.418-2.79,2.162-2.72h1.395c1.465.07,2.79.07,4.882.07l5.3-.279h.907a2.092,2.092,0,0,1,1.813,2.092,2.371,2.371,0,0,1-2.3,2.232h-9.485c-.07.7-.07,1.674-.07,2.371Z" transform="translate(-104.467 -12.477)"/>
        <path id="パス_14882" data-name="パス 14882" d="M38.669,21.808c1.883.628,2.581,2.65,1.534,3.418a2.3,2.3,0,0,1,1.674,1.953,1.953,1.953,0,0,1-.628,1.744c2.232,2.371-2.092,3.208-3.208,3.976a8.3,8.3,0,0,1-2.72,2.232c-1.953,1.116-5.719.209-7.323-1.046s-3.557-4.115-1.255-10.253a25.317,25.317,0,0,0,.628-4.952c.07-3.7-2.371-7.044.628-8.37s5.231,3.836,3.627,9.206c2.86-1.883,6.347-1.046,7.044,2.092" transform="translate(-7.772 -10.298)" fill="#fff"/>
        <path id="パス_14883" data-name="パス 14883" d="M38.669,21.808c1.883.628,2.581,2.65,1.534,3.418a2.3,2.3,0,0,1,1.674,1.953,1.953,1.953,0,0,1-.628,1.744c2.232,2.371-2.092,3.208-3.208,3.976a8.3,8.3,0,0,1-2.72,2.232c-1.953,1.116-5.719.209-7.323-1.046s-3.557-4.115-1.255-10.253a25.317,25.317,0,0,0,.628-4.952c.07-3.7-2.371-7.044.628-8.37s5.231,3.836,3.627,9.206c2.86-1.883,6.347-1.046,7.044,2.092" transform="translate(-7.772 -10.298)" fill="none" stroke="red" stroke-linecap="round" stroke-linejoin="round" stroke-width="1.214"/>
        <path id="パス_14884" data-name="パス 14884" d="M41.638,26.695c-1.255-.558-3.7-.139-6.138,1.116" transform="translate(-10.74 -15.186)" fill="none" stroke="red" stroke-linecap="round" stroke-linejoin="round" stroke-width="1.214"/>
        <path id="パス_14885" data-name="パス 14885" d="M43.738,31.581a8.648,8.648,0,0,0-6.138.7" transform="translate(-11.376 -16.655)" fill="none" stroke="red" stroke-linecap="round" stroke-linejoin="round" stroke-width="1.214"/>
        <path id="パス_14886" data-name="パス 14886" d="M45.459,36.741c-1.186-.837-3.906-.837-5.859.279" transform="translate(-11.981 -18.118)" fill="none" stroke="red" stroke-linecap="round" stroke-linejoin="round" stroke-width="1.214"/>
        <path id="パス_14887" data-name="パス 14887" d="M32.9,25.055a2.232,2.232,0,0,1,.837-1.255" transform="translate(-9.954 -14.383)" fill="none" stroke="red" stroke-linecap="round" stroke-linejoin="round" stroke-width="1.214"/>
        <path id="パス_14888" data-name="パス 14888" d="M18.577,51.368c-.767-.07-1.465.139-2.3.07a.767.767,0,0,1-.7-.767.837.837,0,0,1,.767-.837h3.348c.349.07,1.046.209,1.046.767,0,2.86-3.208,3.557-5.091,3.348S12.3,52.9,12.3,50.879s2.65-4.045,5.091-3.7c1.395.139,2.86.558,2.86,1.813a.628.628,0,0,1-.628.628c-.628-.07-1.046-.767-1.953-.837s-3.7.837-3.7,2.162.558,1.325,1.744,1.465,2.86-.349,2.929-.907Z" transform="translate(-3.721 -21.446)" fill="#fff"/>
        <path id="パス_14889" data-name="パス 14889" d="M28.048,53.864A3.481,3.481,0,0,1,24.7,50.586a4.229,4.229,0,0,1,4.533-3.7A3.418,3.418,0,0,1,32.3,50.377a3.631,3.631,0,0,1-4.324,3.487m1.186-5.51a2.441,2.441,0,0,0-2.65,2.441c0,.976.558,1.465,1.534,1.534a2.3,2.3,0,0,0,2.65-2.3,1.6,1.6,0,0,0-1.534-1.674" transform="translate(-7.473 -21.361)" fill="#fff"/>
        <path id="パス_14890" data-name="パス 14890" d="M39.448,53.864A3.481,3.481,0,0,1,36.1,50.586a4.229,4.229,0,0,1,4.533-3.7A3.418,3.418,0,0,1,43.7,50.377a3.631,3.631,0,0,1-4.324,3.487m1.116-5.51a2.441,2.441,0,0,0-2.65,2.441c0,.976.558,1.465,1.534,1.534a2.3,2.3,0,0,0,2.65-2.3,1.6,1.6,0,0,0-1.534-1.674" transform="translate(-10.922 -21.361)" fill="#fff"/>
        <path id="パス_14891" data-name="パス 14891" d="M48.7,53.793c-.279-.07-.7-.139-.7-.7s.139-1.674.139-2.581V47.935a1.739,1.739,0,0,1,1.395-.837c.558.07,1.674-.07,2.79.07s2.86.488,2.86,2.023a4.673,4.673,0,0,1-2.232,3.418A6.417,6.417,0,0,1,48.7,53.794m1.116-1.674h.7c1.674-.418,2.86-1.744,2.86-2.65s-.209-.628-.7-.7a9.555,9.555,0,0,0-2.65,0,32,32,0,0,1-.279,3.348Z" transform="translate(-14.522 -21.43)" fill="#fff"/>
      </g>
      <g id="グループ_6276" data-name="グループ 6276" transform="translate(58.866)">
        <path id="パス_14892" data-name="パス 14892" d="M89.84,1.4V6.77H84.4V1.4Zm-.907.767h-3.7V5.933h3.7Z" transform="translate(-84.4 -0.424)"/>
        <path id="パス_14893" data-name="パス 14893" d="M101.086,4.4v.837H94.6V4.4Z" transform="translate(-87.486 -1.331)"/>
        <path id="パス_14894" data-name="パス 14894" d="M106.628,5.859c2.86-.488,3.836-1.674,4.185-4.115H106V.907h4.882a.629.629,0,0,1,0-.139.767.767,0,1,1,.767.767,7.463,7.463,0,0,1-.837,2.79,5.58,5.58,0,0,1-3.836,2.3ZM111.3.767a.349.349,0,1,0,.349-.349.349.349,0,0,0-.349.349Z" transform="translate(-90.935 0)"/>
        <path id="パス_14895" data-name="パス 14895" d="M122.628,2.644c-.209,1.534-.488,3.906-4.812,4.324l-.209-.767a5.719,5.719,0,0,0,2.72-.767,2.929,2.929,0,0,0,1.325-2.023H116.7V2.644ZM122.21.9v.767h-5.022V.9Z" transform="translate(-94.172 -0.272)"/>
        <path id="パス_14896" data-name="パス 14896" d="M130.945,6.917h-.907V3.569a11.229,11.229,0,0,1-2.72,1.255l-.418-.7A10.811,10.811,0,0,0,132.27.5l.767.488a21.9,21.9,0,0,1-2.092,1.953Z" transform="translate(-97.258 -0.151)"/>
        <path id="パス_14897" data-name="パス 14897" d="M136.7,6.261a7.6,7.6,0,0,0,4.255-4.394h-3.836V1.1h4.952a7.951,7.951,0,0,1-1.395,3.069c.837.7,1.674,1.395,2.511,2.162l-.7.7a21.551,21.551,0,0,0-2.3-2.232,7.672,7.672,0,0,1-2.929,2.232Z" transform="translate(-100.223 -0.333)"/>
        <path id="パス_14898" data-name="パス 14898" d="M148.037,3.487l-.488.628-.349-.907A5.929,5.929,0,0,0,148.455.07h.767a6.138,6.138,0,0,1-.418,1.813V6.975h-.767ZM152.152,1.6a6.906,6.906,0,0,0-1.465-.976L151.176,0l1.465.907-.488.628h1.883v.7h-1.953V3.627h1.674v.7h-1.674V6.068h2.162v.7h-5.091v-.7h2.162V4.394h-1.674V3.7h1.674V2.3h-1.953V1.6Z" transform="translate(-103.4 0)"/>
        <path id="パス_14899" data-name="パス 14899" d="M161.948,3.866l3.487-.349v.7l-3.557.349V6.028c0,.139.07.139.139.139h2.023a.209.209,0,0,0,.209-.209,8.988,8.988,0,0,0,.07-.976l.767.209c0,1.116-.07,1.744-.767,1.744h-2.511c-.209,0-.7,0-.7-.558V4.7l-2.511.279V4.215l2.581-.279V3.1l-1.325.139-.209-.767a15.972,15.972,0,0,0,4.324-.7l.349.7a10.88,10.88,0,0,1-2.371.558ZM161.669.1h.767V.728h2.86V2.541h-.767V1.495h-4.952V2.541h-.767V.8h2.86Z" transform="translate(-106.848 -0.03)"/>
        <path id="パス_14900" data-name="パス 14900" d="M171.574,5.122H169.9V4.494h4.743V4.076h-4.185V1.634h2.511V1.286H169.9V.658h3.069V.1h.7V.658H176.8v.628h-3.139v.349h2.441V4.076h-.767v.418h1.395v.628H175.34V6.377a.558.558,0,0,1-.628.628h-1.255l-.14-.7H174.5c.139,0,.139-.07.139-.209V5.122h-3.069a8.09,8.09,0,0,1,1.255,1.186L172.2,6.8a6.974,6.974,0,0,0-1.186-1.186Zm-.418-2.929v.418H172.9V2.192Zm0,.907v.418H172.9V3.169Zm2.511-.907v.418h1.744V2.192Zm0,.907v.418h1.744V3.169Z" transform="translate(-110.267 -0.03)"/>
        <path id="パス_14901" data-name="パス 14901" d="M181.6.5h2.79V3.36h-2.023V7.126H181.6Zm.767,1.186h1.325V1.128h-1.325Zm0,1.046h1.325V2.174h-1.325Zm4.882.7h-2.092V.5h2.86v6c0,.418-.209.7-.767.7h-1.186l-.139-.767h1.116c.139,0,.209,0,.209-.209Zm-1.395-1.744h1.395V1.128h-1.395Zm0,1.046h1.395V2.174h-1.395Z" transform="translate(-113.807 -0.151)"/>
        <path id="パス_14902" data-name="パス 14902" d="M192.958.8h2.65V.1h.767V.8h2.86v.7h-5.51V3.8a5.44,5.44,0,0,1-.767,3.139l-.558-.628a4.952,4.952,0,0,0,.628-2.581Zm6.277,2.3h-2.72v.837h2.232V7h-.767V6.656h-3.208V7H194V3.936h1.674V1.7h.767v.628h2.72Zm-4.394,1.6V5.959h3.208V4.633Z" transform="translate(-117.074 -0.03)"/>
      </g>
    </g>
  </g>
</svg>
